HIERARCHY
ROOT joint_Root
{
	OFFSET 0.0 0.0 0.0
	CHANNELS 6 Xposition Yposition Zposition Zrotation Xrotation Yrotation 
	JOINT Hips
	{
		OFFSET -17.1583 93.1646 452.98
		CHANNELS 6 Xposition Yposition Zposition Zrotation Xrotation Yrotation 
		JOINT Spine
		{
			OFFSET 15.7357 0.0 0.0
			CHANNELS 6 Xposition Yposition Zposition Zrotation Xrotation Yrotation 
			JOINT Chest
			{
				OFFSET 8.98455 -0.406207 0.0
				CHANNELS 6 Xposition Yposition Zposition Zrotation Xrotation Yrotation 
				JOINT Neck
				{
					OFFSET 16.3773 0.0 0.0
					CHANNELS 6 Xposition Yposition Zposition Zrotation Xrotation Yrotation 
					JOINT Head
					{
						OFFSET 6.45672 0.0 0.0
						CHANNELS 6 Xposition Yposition Zposition Zrotation Xrotation Yrotation 
						End Site
						{
							OFFSET 0.0 0.0 0.0
						}
					}
				}
				JOINT Shoulder_L
				{
					OFFSET 12.9942 -0.242716 4.98039
					CHANNELS 6 Xposition Yposition Zposition Zrotation Xrotation Yrotation 
					JOINT UpperArm_L
					{
						OFFSET 5.34809 0.0 0.0
						CHANNELS 6 Xposition Yposition Zposition Zrotation Xrotation Yrotation 
						JOINT LowerArm_L
						{
							OFFSET 24.3286 1.87007e-05 0.0
							CHANNELS 6 Xposition Yposition Zposition Zrotation Xrotation Yrotation 
							JOINT Hand_L
							{
								OFFSET 22.2916 0.0 0.0
								CHANNELS 6 Xposition Yposition Zposition Zrotation Xrotation Yrotation 
								End Site
								{
									OFFSET 0.0 0.0 0.0
								}
							}
						}
					}
				}
				JOINT Shoulder_R
				{
					OFFSET 12.9945 -0.242716 -4.98039
					CHANNELS 6 Xposition Yposition Zposition Zrotation Xrotation Yrotation 
					JOINT UpperArm_R
					{
						OFFSET -5.34813 0.0 0.0
						CHANNELS 6 Xposition Yposition Zposition Zrotation Xrotation Yrotation 
						JOINT LowerArm_R
						{
							OFFSET -24.3289 0.000322201 0.0
							CHANNELS 6 Xposition Yposition Zposition Zrotation Xrotation Yrotation 
							JOINT Hand_R
							{
								OFFSET -22.2915 -0.000108084 0.0
								CHANNELS 6 Xposition Yposition Zposition Zrotation Xrotation Yrotation 
								End Site
								{
									OFFSET 0.0 0.0 0.0
								}
							}
						}
					}
				}
			}
		}
		JOINT UpperLeg_L
		{
			OFFSET -2.19248 -6.46944 0.0
			CHANNELS 6 Xposition Yposition Zposition Zrotation Xrotation Yrotation 
			JOINT LowerLeg_L
			{
				OFFSET 39.0811 0.0 -1.23785e-05
				CHANNELS 6 Xposition Yposition Zposition Zrotation Xrotation Yrotation 
				JOINT Foot_L
				{
					OFFSET 40.9854 0.0 -1.26872e-05
					CHANNELS 6 Xposition Yposition Zposition Zrotation Xrotation Yrotation 
					JOINT Toes_L
					{
						OFFSET 11.7543 0.0 0.0
						CHANNELS 6 Xposition Yposition Zposition Zrotation Xrotation Yrotation 
						End Site
						{
							OFFSET 0.0 0.0 0.0
						}
					}
				}
			}
		}
		JOINT UpperLeg_R
		{
			OFFSET -2.19251 6.46944 0.0
			CHANNELS 6 Xposition Yposition Zposition Zrotation Xrotation Yrotation 
			JOINT LowerLeg_R
			{
				OFFSET -39.0811 -0.00228153 -0.0401928
				CHANNELS 6 Xposition Yposition Zposition Zrotation Xrotation Yrotation 
				JOINT Foot_R
				{
					OFFSET -40.9854 0.0 0.0
					CHANNELS 6 Xposition Yposition Zposition Zrotation Xrotation Yrotation 
					JOINT Toes_R
					{
						OFFSET -11.7543 0.0 0.0
						CHANNELS 6 Xposition Yposition Zposition Zrotation Xrotation Yrotation 
						End Site
						{
							OFFSET 0.0 0.0 0.0
						}
					}
				}
			}
		}
	}
}
MOTION
Frames:	4
Frame Time:	0.0333333
0.000000 0.000000 0.000000 0.000000 0.000000 -0.000000 -0.375523 92.840100 -1.276190 86.261300 -3.315940 0.536129 15.735700 0.000005 -0.000001 88.626900 87.592300 -86.499300 8.984550 -0.406207 -0.000000 -2.942700 -0.314065 4.247660 16.377300 -0.000001 -0.000001 4.925170 3.860220 -1.637350 6.456720 -0.000001 -0.000000 3.117450 4.966580 -4.854380 12.994200 -0.242716 4.980390 -92.617000 8.012450 -71.845200 5.348090 -0.000007 -0.000001 -74.129700 22.942000 3.505690 24.328600 0.000019 0.000005 17.129200 29.282300 -32.215600 22.291600 -0.000001 0.000005 -3.695160 5.099520 5.124870 12.994500 -0.242716 -4.980390 88.621100 4.575770 -73.210000 -5.348130 -0.000001 -0.000004 -70.815200 30.040400 -4.013280 -24.328900 0.000322 -0.000009 2.209130 7.442230 -16.592000 -22.291500 -0.000108 -0.000004 2.101690 5.251920 1.381990 -2.192480 -6.469440 -0.000000 -176.151000 -1.183010 -4.236040 39.081100 -0.000007 -0.000012 0.237547 -0.602951 21.503600 40.985400 -0.000006 -0.000013 2.483860 6.918430 -72.091100 11.754300 -0.000000 0.000003 0.000041 0.166931 -9.806220 -2.192510 6.469440 -0.000001 -174.118000 5.415520 -179.356000 -39.081100 -0.002282 -0.040193 0.043947 -0.176539 12.955700 -40.985400 0.000008 0.000006 0.664793 2.779880 -68.573700 -11.754300 -0.000006 -0.000006 -0.012472 0.288935 -4.829270
0.000000 0.000000 0.000000 0.000000 0.000000 -0.000000 -0.419339 92.846300 -1.267960 86.258900 -3.345620 0.436580 15.735700 0.000005 -0.000001 88.458300 87.610500 -86.303300 8.984550 -0.406207 -0.000000 -2.978910 -0.330469 4.302020 16.377300 -0.000001 -0.000001 4.867880 3.823220 -1.735970 6.456720 -0.000001 -0.000000 2.987530 4.867140 -5.135320 12.994200 -0.242716 4.980390 -92.650700 8.069840 -71.747700 5.348090 -0.000007 -0.000001 -73.696700 22.499300 3.505800 24.328600 0.000019 0.000005 17.691600 28.980700 -33.358700 22.291600 -0.000001 0.000005 -3.765420 5.103590 5.031150 12.994500 -0.242716 -4.980390 88.600300 4.624830 -73.141200 -5.348130 -0.000001 -0.000004 -70.759600 29.996600 -4.044250 -24.328900 0.000322 -0.000009 2.208990 7.431280 -16.614000 -22.291500 -0.000108 -0.000004 2.042210 5.250550 1.418200 -2.192480 -6.469440 -0.000000 -176.114000 -1.221850 -4.300420 39.081100 -0.000007 -0.000012 0.236934 -0.602697 21.461400 40.985400 -0.000006 -0.000013 2.450260 6.941750 -72.128100 11.754300 -0.000000 0.000003 -0.000174 0.170503 -9.661150 -2.192510 6.469440 -0.000001 -174.094000 5.406320 -179.412000 -39.081100 -0.002282 -0.040193 0.041959 -0.168746 12.892700 -40.985400 0.000008 0.000006 0.591185 2.818960 -68.566400 -11.754300 -0.000006 -0.000006 -0.012543 0.289417 -4.809520
0.000000 0.000000 0.000000 0.000000 0.000000 -0.000000 -0.476743 92.830500 -1.240070 86.257300 -3.316410 0.447935 15.735700 0.000005 -0.000001 88.066000 87.602200 -85.876800 8.984550 -0.406207 -0.000000 -2.962480 -0.366616 4.369400 16.377300 -0.000001 -0.000001 4.842110 3.772050 -1.909560 6.456720 -0.000001 -0.000000 2.829930 4.756900 -5.452190 12.994200 -0.242716 4.980390 -92.689500 8.142800 -71.652100 5.348090 -0.000007 -0.000001 -73.223600 21.568500 3.582350 24.328600 0.000019 0.000005 18.669400 28.879800 -34.976300 22.291600 -0.000001 0.000005 -3.642380 5.119270 4.668730 12.994500 -0.242716 -4.980390 88.584000 4.662640 -73.085800 -5.348130 -0.000001 -0.000004 -70.744300 29.811800 -4.029150 -24.328900 0.000322 -0.000009 2.225040 7.492160 -16.600400 -22.291500 -0.000108 -0.000004 1.926230 5.255200 1.294860 -2.192480 -6.469440 -0.000000 -176.063000 -1.249620 -4.317450 39.081100 -0.000007 -0.000012 0.238088 -0.602901 21.549700 40.985400 -0.000006 -0.000013 2.427410 7.004800 -72.151500 11.754300 -0.000000 0.000003 0.000018 0.167325 -9.790220 -2.192510 6.469440 -0.000001 -174.028000 5.314160 -179.412000 -39.081100 -0.002282 -0.040193 0.043868 -0.176314 12.947300 -40.985400 0.000008 0.000006 0.736921 2.688840 -68.603200 -11.754300 -0.000006 -0.000006 -0.012186 0.286973 -4.909670
0.000000 0.000000 0.000000 0.000000 0.000000 -0.000000 -0.549085 92.832900 -1.229980 86.238300 -3.243420 0.375655 15.735700 0.000005 -0.000001 87.507800 87.613500 -85.284800 8.984550 -0.406207 -0.000000 -2.985640 -0.415906 4.435790 16.377300 -0.000001 -0.000001 4.793980 3.695810 -2.078280 6.456720 -0.000001 -0.000000 2.599530 4.593840 -5.856000 12.994200 -0.242716 4.980390 -92.734100 8.212330 -71.513900 5.348090 -0.000007 -0.000001 -72.654200 20.305900 3.658440 24.328600 0.000019 0.000005 20.250600 28.857400 -37.394500 22.291600 -0.000001 0.000005 -3.685240 5.124430 4.547970 12.994500 -0.242716 -4.980390 88.559200 4.705280 -72.953500 -5.348130 -0.000001 -0.000004 -70.695100 29.849400 -4.034280 -24.328900 0.000322 -0.000009 2.222150 7.445830 -16.676900 -22.291500 -0.000108 -0.000004 1.955970 5.252990 1.353590 -2.192480 -6.469440 -0.000000 -175.980000 -1.189770 -4.384960 39.081100 -0.000007 -0.000012 0.237599 -0.601497 21.555100 40.985400 -0.000006 -0.000013 2.377930 7.068600 -72.227600 11.754300 -0.000000 0.000003 -0.000118 0.169594 -9.698060 -2.192510 6.469440 -0.000001 -173.961000 5.321210 -179.449000 -39.081100 -0.002282 -0.040193 0.041650 -0.167362 12.895200 -40.985400 0.000008 0.000006 0.595517 2.646970 -68.574800 -11.754300 -0.000006 -0.000006 -0.012309 0.287817 -4.875100
